# xmcd
#
# Track frame offsets:
#	150
#	14598
#	32050
#	51893
#	65682
#	78105
#	93268
#	109992
#	124245
#	135505
#
# Disc length: 2073 seconds
#
# Revision: 0
# Processed by: cddbd v1.5.1PL0 Copyright (c) Steve Scherf et al.
# Submitted via: dBpowerAMP V4.0
#
DISCID=8308170a
DTITLE=David De Anda Y La Ley - La Chancla - La Chancla
DYEAR=1900
DGENRE=Tejano
TTITLE0=La Chancla
TTITLE1=La Mucura
TTITLE2=La Camelia
TTITLE3=Albur Perdido
TTITLE4=La Vacilona
TTITLE5=Mi Ranchito
TTITLE6=Piquito De Oro
TTITLE7=Que Me Lleve El Diablo
TTITLE8=Mamacita
TTITLE9=El Gancho
EXTD=David De Anda Y La Ley - La Chancla
EXTT0=
EXTT1=
EXTT2=
EXTT3=
EXTT4=
EXTT5=
EXTT6=
EXTT7=
EXTT8=
EXTT9=
PLAYORDER=
